<svg width="136" height="24" viewBox="0 0 136 24" fill="none" xmlns="http://www.w3.org/2000/svg">
<path d="M49.167 14.219V14.143C49.167 12.224 47.97 11.217 46.45 11.008C47.97 10.685 48.882 9.735 48.882 8.063V7.987C48.882 6.163 47.761 4.415 44.189 4.415H37.102V18H43.98C47.685 18 49.167 16.594 49.167 14.219ZM44.189 13.554V13.63C44.189 14.314 43.79 14.732 42.935 14.732H42.023V12.471H42.878C43.847 12.471 44.189 12.87 44.189 13.554ZM44.132 8.595V8.671C44.132 9.279 43.828 9.545 43.011 9.545H42.023V7.664H43.011C43.828 7.664 44.132 7.987 44.132 8.595ZM57.0685 12.927V13.079C57.0685 14.447 56.6885 15.112 55.7765 15.112C54.8075 15.112 54.4465 14.466 54.4465 13.022V12.87C54.4465 11.502 54.8835 10.932 55.7765 10.932C56.7075 10.932 57.0685 11.559 57.0685 12.927ZM61.4765 13.041V12.889C61.4765 9.621 58.9495 7.759 55.7765 7.759C52.5655 7.759 50.0385 9.735 50.0385 13.022V13.174C50.0385 16.537 52.5845 18.266 55.7575 18.266C58.9305 18.266 61.4765 16.385 61.4765 13.041ZM69.2634 12.927V13.079C69.2634 14.447 68.8834 15.112 67.9714 15.112C67.0024 15.112 66.6414 14.466 66.6414 13.022V12.87C66.6414 11.502 67.0784 10.932 67.9714 10.932C68.9024 10.932 69.2634 11.559 69.2634 12.927ZM73.6714 13.041V12.889C73.6714 9.621 71.1444 7.759 67.9714 7.759C64.7604 7.759 62.2334 9.735 62.2334 13.022V13.174C62.2334 16.537 64.7794 18.266 67.9524 18.266C71.1254 18.266 73.6714 16.385 73.6714 13.041ZM81.4392 17.943V14.713C81.1352 14.846 80.9072 14.865 80.6032 14.865C80.0142 14.865 79.7102 14.58 79.7102 14.029V10.894H81.4772V8.063H79.7102V6.087H75.3592V8.063H74.2762V10.894H75.3592V14.447C75.3592 17.183 76.8032 18.266 79.2922 18.266C80.1852 18.266 80.9262 18.076 81.4392 17.943ZM93.1095 13.915H89.2145C89.1385 14.732 88.7585 15.15 88.0745 15.15C87.0865 15.15 86.7825 14.466 86.7825 13.098V12.946C86.7825 11.635 87.1245 11.084 88.0175 11.084C88.7965 11.084 88.9105 11.559 89.0055 12.148H93.0525C92.9005 8.88 90.5065 7.759 87.9035 7.759C84.8255 7.759 82.3555 9.564 82.3555 13.022V13.174C82.3555 16.67 84.7115 18.266 87.7705 18.266C91.3615 18.266 93.0525 16.594 93.1095 13.915ZM104.276 18V11.616C104.276 9.013 102.604 7.759 99.3554 7.759C96.2394 7.759 94.3204 9.108 94.1874 11.559H98.2154C98.2724 11.255 98.3864 10.704 99.0894 10.704C99.9444 10.704 99.9824 11.312 99.9824 11.939V11.996H99.2794C95.5744 11.996 93.8454 12.889 93.8454 15.245C93.8454 17.392 95.4604 18.266 97.2274 18.266C98.8994 18.266 99.7354 17.487 100.096 16.879V18H104.276ZM99.9824 14.2V14.523C99.9824 15.036 99.5454 15.416 98.9184 15.416C98.3864 15.416 98.1204 15.226 98.1204 14.865C98.1204 14.39 98.2914 14.2 99.3174 14.2H99.9824ZM122.358 18V11.331C122.358 9.032 121.085 7.759 119.166 7.759C117.893 7.759 116.867 8.215 115.936 9.298C115.48 8.329 114.701 7.759 113.333 7.759C111.775 7.759 110.711 8.633 110.16 9.583V8.063H105.809V18H110.16V12.414C110.16 11.673 110.369 11.236 111.11 11.236C111.566 11.236 111.946 11.616 111.946 12.243V18H116.24V12.414C116.24 11.673 116.449 11.236 117.19 11.236C117.665 11.236 118.026 11.616 118.026 12.243V18H122.358ZM128.255 21.268V16.632C128.711 17.601 129.737 18.266 131.162 18.266C133.309 18.266 135.247 16.727 135.247 13.136V12.984C135.247 9.412 133.366 7.759 131.2 7.759C129.68 7.759 128.806 8.519 128.255 9.45V8.063H123.904V21.268H128.255ZM130.839 12.927V13.079C130.839 14.352 130.383 14.979 129.452 14.979C128.578 14.979 128.141 14.333 128.141 13.06V12.908C128.141 11.692 128.54 10.951 129.452 10.951C130.383 10.951 130.839 11.616 130.839 12.927Z" fill="#FAFAFA"/>
<path d="M5 9C7.20914 9 9 7.20914 9 5C9 2.79086 7.20914 1 5 1C2.79086 1 1 2.79086 1 5C1 7.20914 2.79086 9 5 9Z" fill="#FAFAFA"/>
<path d="M19 23C21.2091 23 23 21.2091 23 19C23 16.7909 21.2091 15 19 15C16.7909 15 15 16.7909 15 19C15 21.2091 16.7909 23 19 23Z" fill="#FAFAFA"/>
<path d="M13.0002 18H7.70017C7.00017 18 6.80017 17.4 6.70017 17.3C6.70017 17.1 6.60017 16.5 7.20017 16.2L18.8002 9.7C20.0002 9 20.6002 7.7 20.2002 6.3C19.8002 4.9 18.7002 4 17.3002 4H11.0002C10.4002 4 10.0002 4.4 10.0002 5C10.0002 5.6 10.4002 6 11.0002 6H17.3002C18.0002 6 18.2002 6.6 18.3002 6.7C18.4002 6.8 18.4002 7.5 17.8002 7.8L6.20017 14.4C5.00017 15.1 4.40017 16.4 4.80017 17.8C5.10017 19.1 6.30017 20 7.70017 20H13.0002C13.6002 20 14.0002 19.6 14.0002 19C14.0002 18.4 13.6002 18 13.0002 18Z" fill="#FAFAFA"/>
</svg>
